<svg width="51" height="50" viewBox="0 0 51 50" fill="none" xmlns="http://www.w3.org/2000/svg">
<ellipse cx="25.2561" cy="25" rx="25.0364" ry="25" fill="#F9EAEA"/>
<g clip-path="url(#clip0)">
<path d="M20.2489 16.25C23.0154 16.25 25.2561 18.4438 25.2561 21.15C25.2561 18.4438 27.4969 16.25 30.2634 16.25C33.0299 16.25 35.2707 18.4438 35.2707 21.15C35.2707 25.2288 31.2223 26.6675 25.7468 33.16C25.6866 33.2313 25.6114 33.2886 25.5267 33.3279C25.4419 33.3672 25.3496 33.3876 25.2561 33.3876C25.1627 33.3876 25.0704 33.3672 24.9856 33.3279C24.9008 33.2886 24.8257 33.2313 24.7654 33.16C19.29 26.6675 15.2416 25.2288 15.2416 21.15C15.2416 18.4438 17.4823 16.25 20.2489 16.25Z" fill="#F02323"/>
</g>
<defs>
<clipPath id="clip0">
<rect width="20.0291" height="20" fill="white" transform="translate(15.2416 15)"/>
</clipPath>
</defs>
</svg>
