<svg width="51" height="50" viewBox="0 0 51 50" fill="none" xmlns="http://www.w3.org/2000/svg">
<ellipse cx="25.2561" cy="25" rx="25.0364" ry="25" fill="#EDEFF6"/>
<g clip-path="url(#clip0)">
<g opacity="0.5">
<path fill-rule="evenodd" clip-rule="evenodd" d="M25.2561 23.1244L26.3753 20.7756C26.6532 20.194 27.1351 19.3576 27.8174 18.6815C28.4883 18.0159 29.292 17.5629 30.2634 17.5629C32.3615 17.5629 34.0189 19.3038 34.0189 21.3966C34.0189 22.9865 33.3254 24.109 31.6805 25.8211C31.2586 26.2596 30.7779 26.7335 30.2459 27.2561C28.8589 28.6215 27.1339 30.3204 25.2561 32.5917C23.3784 30.3204 21.6534 28.6215 20.2664 27.2561C19.7344 26.7335 19.2524 26.2583 18.8318 25.8211C17.1869 24.109 16.4934 22.9865 16.4934 21.3966C16.4934 19.3038 18.1508 17.5629 20.2489 17.5629C21.2203 17.5629 22.0239 18.0159 22.6949 18.6815C23.3772 19.3576 23.8591 20.194 24.137 20.7756L25.2561 23.1244ZM25.7468 34.0109C25.6866 34.0858 25.6114 34.146 25.5267 34.1873C25.4419 34.2286 25.3496 34.25 25.2561 34.25C25.1627 34.25 25.0704 34.2286 24.9856 34.1873C24.9008 34.146 24.8257 34.0858 24.7654 34.0109C22.7613 31.5138 20.9474 29.7283 19.4539 28.2591C16.8689 25.7134 15.2416 24.113 15.2416 21.3966C15.2416 18.5541 17.4823 16.25 20.2489 16.25C22.2518 16.25 23.6526 17.6285 24.51 18.8863C24.8355 19.3655 25.0834 19.8263 25.2561 20.1887C25.4727 19.7352 25.7221 19.2998 26.0022 18.8863C26.8597 17.6272 28.2605 16.25 30.2634 16.25C33.0299 16.25 35.2707 18.5541 35.2707 21.3966C35.2707 24.113 33.6433 25.7134 31.0583 28.2591C29.5649 29.7296 27.751 31.5151 25.7468 34.0096V34.0109Z" fill="#192144"/>
</g>
</g>
<defs>
<clipPath id="clip0">
<rect width="20.0291" height="20" fill="white" transform="translate(15.2416 15)"/>
</clipPath>
</defs>
</svg>
