<svg width="24" height="24" viewBox="0 0 24 24" fill="none" xmlns="http://www.w3.org/2000/svg">
<path fill-rule="evenodd" clip-rule="evenodd" d="M12 0.796875C7.77425 0.796875 3.53833 1.51113 2.00137 2.93476C0.72618 4.11583 0.301098 6.20233 0.157809 7.52341C0.157809 7.52341 0.138062 7.65396 0.138062 7.71011C0.138062 8.22816 0.582782 8.64365 1.12651 8.64365C1.19076 8.64365 3.56809 8.46157 5.00137 8.34956C5.03586 8.34484 5.07062 8.34021 5.10511 8.33091C5.63894 8.31699 6.06902 7.90612 6.06902 7.39738L6.07381 5.55816C6.07381 4.98869 6.5633 4.53117 7.16633 4.53117H16.8336C17.4367 4.53117 17.9263 4.98863 17.9263 5.55816L17.9311 7.39738C17.9311 7.90612 18.3611 8.31699 18.8949 8.33091C18.9292 8.34026 18.9639 8.34484 18.9988 8.34956C20.4322 8.46151 22.8095 8.64365 22.8735 8.64365C23.417 8.64365 23.8621 8.22816 23.8621 7.71011C23.8621 7.65396 23.8423 7.52341 23.8423 7.52341C23.6989 6.20233 23.2743 4.11588 21.9991 2.93476C20.4616 1.51113 16.2257 0.796875 12 0.796875ZM12 12.9335C10.9077 12.9335 10.023 13.769 10.023 14.8006C10.023 15.8322 10.9077 16.6677 12 16.6677C13.0923 16.6677 13.9769 15.8322 13.9769 14.8006C13.9769 13.769 13.0923 12.9335 12 12.9335ZM10.5173 8.73228V7.56533C10.5173 6.92121 9.96363 6.39839 9.28167 6.39839C8.59971 6.39839 8.04608 6.92126 8.04608 7.56533V8.73228L1.37838 15.4588C0.918919 15.8837 0.632177 16.4763 0.632177 17.13V19.0018C0.632177 20.0334 1.51694 20.8689 2.60918 20.8689H3.10346V22.036C3.10346 22.6801 3.65714 23.2028 4.3391 23.2028C5.02106 23.2028 5.57469 22.6801 5.57469 22.036V20.8689H18.4253V22.036C18.4253 22.6801 18.9787 23.2028 19.661 23.2028C20.3429 23.2028 20.8965 22.6801 20.8965 22.036V20.8689H21.3907C22.483 20.8689 23.3677 20.0334 23.3677 19.0018V17.13C23.3677 16.4762 23.081 15.8836 22.6215 15.4588L15.954 8.73228V7.56533C15.954 6.92121 15.4003 6.39839 14.7184 6.39839C14.0364 6.39839 13.4828 6.92126 13.4828 7.56533V8.73228H10.5173ZM12 11.0663C14.1846 11.0663 15.954 12.7374 15.954 14.8006C15.954 16.8638 14.1846 18.5351 12 18.5351C9.81539 18.5351 8.04603 16.8639 8.04603 14.8006C8.04603 12.7374 9.81539 11.0663 12 11.0663Z" fill="#FFD74B"/>
</svg>
